<?xml version="1.0" encoding="utf-8"?>
<!-- Generator: Adobe Illustrator 26.0.2, SVG Export Plug-In . SVG Version: 6.00 Build 0)  -->
<svg version="1.1" id="Layer_1" xmlns="http://www.w3.org/2000/svg" xmlns:xlink="http://www.w3.org/1999/xlink" x="0px" y="0px"
	 viewBox="0 0 258 61" style="enable-background:new 0 0 258 61;" xml:space="preserve">
<style type="text/css">
	.st0{fill:#0657F9;}
	.st1{fill-rule:evenodd;clip-rule:evenodd;fill:#0657F9;}
	.st2{fill-rule:evenodd;clip-rule:evenodd;fill:#FFFFFF;}
</style>
<path class="st0" d="M97,29l7.1-23.9h11L99.7,49.5l-0.9,2c-2.3,5-6.1,7.5-11.4,7.5c-1.5,0-3-0.2-4.5-0.7v-7.8l1.6,0
	c1.9,0,3.4-0.3,4.3-0.9c1-0.6,1.7-1.6,2.3-2.9l1.2-3.2L78.8,5.1h11L97,29z"/>
<path class="st0" d="M136.4,44.2c-5.6,0-10.2-1.7-13.8-5.2c-3.5-3.5-5.3-8.1-5.3-13.8v-1c0-3.9,0.7-7.3,2.2-10.3
	c1.5-3.1,3.6-5.4,6.3-7c2.7-1.7,5.9-2.5,9.4-2.5c5.3,0,9.4,1.7,12.4,5c3,3.3,4.5,8,4.5,14.1v4.2h-24.5c0.3,2.5,1.3,4.5,3,6
	c1.7,1.5,3.8,2.3,6.4,2.3c4,0,7-1.4,9.3-4.3l5,5.6c-1.5,2.2-3.6,3.9-6.3,5.1C142.5,43.6,139.6,44.2,136.4,44.2z M135.2,12.7
	c-2,0-3.7,0.7-5,2.1c-1.3,1.4-2.1,3.3-2.4,5.9h14.3v-0.8c0-2.3-0.7-4-1.8-5.3C139.1,13.3,137.4,12.7,135.2,12.7z"/>
<path class="st0" d="M180.3,43.5c-0.5-0.9-0.8-2.1-1-3.4c-2.5,2.8-5.7,4.2-9.7,4.2c-3.8,0-6.9-1.1-9.4-3.3c-2.5-2.2-3.7-4.9-3.7-8.2
	c0-4.1,1.5-7.2,4.5-9.4c3-2.2,7.4-3.3,13.1-3.3h4.7v-2.2c0-1.8-0.5-3.2-1.4-4.3c-0.9-1.1-2.3-1.6-4.3-1.6c-1.7,0-3.1,0.4-4.1,1.2
	c-1,0.8-1.5,2-1.5,3.4h-10.3c0-2.2,0.7-4.3,2.1-6.2c1.4-1.9,3.3-3.4,5.8-4.4c2.5-1.1,5.3-1.6,8.5-1.6c4.7,0,8.5,1.2,11.3,3.6
	c2.8,2.4,4.2,5.7,4.2,10v16.7c0,3.6,0.5,6.4,1.5,8.3v0.6H180.3z M171.8,36.4c1.5,0,2.9-0.3,4.2-1c1.3-0.7,2.2-1.6,2.8-2.7V26H175
	c-5.1,0-7.9,1.8-8.2,5.3l0,0.6c0,1.3,0.4,2.3,1.3,3.2C169,36,170.3,36.4,171.8,36.4z"/>
<path class="st0" d="M218.7,14.7c-1.4-0.2-2.6-0.3-3.7-0.3c-3.9,0-6.4,1.3-7.6,3.9v25.2h-10.3V5.1h9.7l0.3,4.6
	c2.1-3.5,4.9-5.3,8.6-5.3c1.1,0,2.2,0.2,3.2,0.5L218.7,14.7z"/>
<path class="st0" d="M233.1,5.1l0.3,4.4c2.7-3.4,6.4-5.2,11-5.2c4.1,0,7.1,1.2,9.1,3.6c2,2.4,3,6,3.1,10.7v24.8h-10.3V18.9
	c0-2.2-0.5-3.8-1.4-4.7c-0.9-1-2.5-1.5-4.7-1.5c-2.9,0-5.1,1.2-6.5,3.7v27.1h-10.3V5.1H233.1z"/>
<path class="st1" d="M57,29c0-3.7-0.7-7.3-2.1-10.7c-1.4-3.4-3.5-6.5-6.1-9.1c-2.6-2.6-5.7-4.7-9.1-6.1C36.3,1.7,32.7,1,29,1
	s-7.3,0.7-10.7,2.1c-3.4,1.4-6.5,3.5-9.1,6.1c-2.6,2.6-4.7,5.7-6.1,9.1C1.7,21.7,1,25.3,1,29s0.7,7.3,2.1,10.7
	c1.4,3.4,3.5,6.5,6.1,9.1c2.6,2.6,5.7,4.7,9.1,6.1C21.7,56.3,25.3,57,29,57s7.3-0.7,10.7-2.1c3.4-1.4,6.5-3.5,9.1-6.1
	c2.6-2.6,4.7-5.7,6.1-9.1C56.3,36.3,57,32.7,57,29z"/>
<path class="st2" d="M27.6,16.4h2.9v25.3h-2.9V16.4z"/>
<path class="st2" d="M25.9,28.3v-3c-2.3-1.1-3.9-3.5-3.9-6.3c0-3.9,3.1-7,7-7c4.3,0,7.5,3.1,7.5,7c0,1-0.2,1.9-0.7,3l-1.2-4
	l-2.5,0.8l2.2,8.4l8.5-3.1l-1-2.4l-3.2,1.1c0.6-1.2,0.7-2.2,0.7-3.6c0-5.4-4.4-9.8-10.3-9.8c-5.4,0-9.8,4.4-9.8,9.8
	C19.2,23.3,22,27,25.9,28.3z"/>
<path class="st2" d="M32.1,29.7v3c2.3,1.1,3.9,3.5,3.9,6.3c0,3.9-3.1,7-7,7c-4.3,0-7.5-3.1-7.5-7c0-1,0.2-1.9,0.7-3l1.2,4l2.5-0.8
	l-2.2-8.4l-8.5,3.1l1,2.4l3.2-1.1c-0.6,1.2-0.7,2.2-0.7,3.6c0,5.4,4.4,9.8,10.3,9.8c5.4,0,9.8-4.4,9.8-9.8
	C38.8,34.7,36,31,32.1,29.7z"/>
</svg>
